<svg width="38" height="38" viewBox="0 0 38 38" fill="none" xmlns="http://www.w3.org/2000/svg">
<path fill-rule="evenodd" clip-rule="evenodd" d="M5.7002 19C5.7002 11.6546 11.6548 5.7 19.0002 5.7C26.3456 5.7 32.3002 11.6546 32.3002 19C32.3002 26.3454 26.3456 32.3 19.0002 32.3C11.6548 32.3 5.7002 26.3454 5.7002 19ZM19.0002 13.8846C19.5652 13.8846 20.0233 14.3427 20.0233 14.9077V20.0231C20.0233 20.5881 19.5652 21.0462 19.0002 21.0462C18.4352 21.0462 17.9771 20.5881 17.9771 20.0231V14.9077C17.9771 14.3427 18.4352 13.8846 19.0002 13.8846ZM19.0002 25.1385C19.5652 25.1385 20.0233 24.6804 20.0233 24.1154C20.0233 23.5504 19.5652 23.0923 19.0002 23.0923C18.4352 23.0923 17.9771 23.5504 17.9771 24.1154C17.9771 24.6804 18.4352 25.1385 19.0002 25.1385Z" fill="#FF5630"/>
</svg>
